<mxfile host="app.diagrams.net" modified="2023-07-11T09:31:19.586Z" agent="Mozilla/5.0 (Macintosh; Intel Mac OS X 10_15_7) AppleWebKit/605.1.15 (KHTML, like Gecko) Version/16.4 Safari/605.1.15" etag="KHamhp3apgMOt2DUxdKf" version="21.6.1" type="device">
  <diagram id="2CVmOH9jfNdSifVGUgX3" name="Page-1">
    <mxGraphModel dx="522" dy="324" grid="1" gridSize="10" guides="1" tooltips="1" connect="1" arrows="1" fold="1" page="1" pageScale="1" pageWidth="827" pageHeight="1169" math="0" shadow="0">
      <root>
        <mxCell id="0" />
        <mxCell id="1" parent="0" />
        <mxCell id="9anAIuhViXf6DVafKuer-1" value="&lt;br&gt;&lt;br&gt;Cloud Platform" style="rounded=1;whiteSpace=wrap;html=1;" parent="1" vertex="1">
          <mxGeometry x="60" y="40" width="120" height="80" as="geometry" />
        </mxCell>
        <mxCell id="9anAIuhViXf6DVafKuer-2" value="&lt;br&gt;&lt;br&gt;Spring Cloud Function Adapter" style="rounded=1;whiteSpace=wrap;html=1;" parent="1" vertex="1">
          <mxGeometry x="310" y="40" width="120" height="80" as="geometry" />
        </mxCell>
        <mxCell id="9anAIuhViXf6DVafKuer-3" value="&lt;br&gt;&lt;br&gt;Spring Boot Project" style="rounded=1;whiteSpace=wrap;html=1;" parent="1" vertex="1">
          <mxGeometry x="580" y="40" width="120" height="80" as="geometry" />
        </mxCell>
        <mxCell id="9anAIuhViXf6DVafKuer-4" value="" style="endArrow=classic;startArrow=classic;html=1;rounded=0;entryX=0;entryY=0.5;entryDx=0;entryDy=0;exitX=1;exitY=0.5;exitDx=0;exitDy=0;" parent="1" source="9anAIuhViXf6DVafKuer-1" target="9anAIuhViXf6DVafKuer-2" edge="1">
          <mxGeometry width="50" height="50" relative="1" as="geometry">
            <mxPoint x="390" y="390" as="sourcePoint" />
            <mxPoint x="440" y="340" as="targetPoint" />
          </mxGeometry>
        </mxCell>
        <mxCell id="9anAIuhViXf6DVafKuer-5" value="" style="endArrow=classic;startArrow=classic;html=1;rounded=0;entryX=0;entryY=0.5;entryDx=0;entryDy=0;exitX=1;exitY=0.5;exitDx=0;exitDy=0;" parent="1" source="9anAIuhViXf6DVafKuer-2" target="9anAIuhViXf6DVafKuer-3" edge="1">
          <mxGeometry width="50" height="50" relative="1" as="geometry">
            <mxPoint x="190" y="80" as="sourcePoint" />
            <mxPoint x="250" y="80" as="targetPoint" />
          </mxGeometry>
        </mxCell>
        <mxCell id="WvL-EfqDoBBDocNPM3JB-2" value="" style="shape=image;verticalLabelPosition=bottom;labelBackgroundColor=default;verticalAlign=top;aspect=fixed;imageAspect=0;image=data:image/png,iVBORw0KGgoAAAANSUhEUgAABLAAAAKjCAMAAAA6bQbyAAAACVBMVEX+fgD/////wIOV+yniAAAO9ElEQVR42uzaQW7kRhBFwSbvf+jZazWDKZH5OiN8AAtS4eEn7c8FEPHxKwAEC0CwAMECECwAwQIEC0CwAAQLECwAwQIQLECwAAQLQLAAwQIQLADBAgQLQLAABAsQLADBAhAsQLAABAtAsADBAhAsQLAABAtAsADBAhAsAMECBAtAsAAECxAsAMECECxAsAAEC0CwAMECECwAwQIEC0CwAAQLECwAwQIQLECwAAQLQLAAwQIQLECwAAQLQLAAwQIQLADBAgQLQLAABAsQLADBAhAsQLAABAtAsADBAhAsAMECBAtAsAAECxAsAMECECxAsAAEC0CwAMECECxAsPgm96v8/hEs/iVYnzf5/SNYCBYIlmCd5iZEsMgEy3tCsOgEy8RCsMgEy4NCsBAsECzBchMiWOwNlheFYNEJlomFYJEJlieFYCFYIFiC5SZEsNgbLG8KwaITLBMLwUKwECy/AsFSLAQLwQLBYnywvCoEi06wTCwEC8FCsBAsNyGCxd5gmVgIFplgeVcIFp1gmVgIFoKFYCFYbkIEi73BMrEQLDLB8rIQLDrBMrEQLAQLwUKwFAvBQrBAsBgfLG8LwaITLBMLwUKwECwEy02IYLE3WCYWgkUmWF4XgkUnWCYWgoVgIVgIlpsQwWJvsEwsBItMsLwvBItOsEwsBAvBQrAQLDchgsXeYJlYCBaZYHlhCBadYJlYCBaChWAhWG5CBIu9wTKxECwywfLGECw6wTKxECwEC8FCsNyECBZ7g2ViIVhkguWVIVh0gmViIVgIFoKFYLkJESz2BsvEQrDIBMs7Q7DoBMvEQrAQLAQLwXITIljsDZaJhWCRCZaXhmDRCZaJhWAhWAgWguUmRLDYGywTC8EiEyxvDcGiEywTC8FCsBAsBMtNiGCxN1gmFoJFJlheG4LFz2T97z8mFoKFjSZYCBbHH4WbEMHCxDKxECxMLAQLwTKxECzchCBYzA+WB4dg4SZEsDCxTCwEi8XBMrEQLNyECBYmlpsQwcJNCILF+JvQm0OwMLEQLARLsBAs3IQgWMwPlomFYJG5Cb06BAs3IYKFiaVYCBaCBYLF/JvQZ3cEi0ywvDsECzchgoWJ5SZEsHATgmAx/yY0sRAsTCwEC8ESLASLvTehp4dgIVgIFm5Cn90RLEwsECwEC8HCTegmRLAwsUCwmBssEwvBInMTen0IFm5CBAvBchMiWLgJQbAwsRAsBMvEQrBwE4JgMTdYbkIECzchgoWJZWIhWOwNlheIYOEmRLAwsdyECBZuQhAs5t+EJhaChYmFYCFYgoVg4SYEwcLEQrAQLBMLwWLfTegVIlgIFoKFm9BNiGBhYoFgMT9YJhaCReYm9A4RLNyECBaC5SZEsHATgmBhYiFYCJaJhWDhJgTBwk2IYCFYJhaCxaKb0MRCsMgEy1tEsHATIliYWG5CBAs3IQgW829CEwvBwsRCsBAswUKwcBOCYGFiIVgIlomFYLHuJBQsBItMr9yECBahYJlYCBaVXplYCBZn3sojTCwEi0qvBAvBonIQugkRLDoDy8RCsOgMLBMLwaLTKxMLwSJyEAoWgkVoYLkJESw6vTKxECwiB6GJhWARGlgmFoJFp1eChWBROQjdhAgWnYFlYiFYdAaWiYVg0emViYVgETkIBQvBIjSw3IQIFp1emVgIFpGD0MRCsAgNLBMLwaIzsAQLwSLTKzchgkXlIDSxECxCA8vEQrDo9MrEQrCIHISChWARGlhuQgSLTq9MLASLTrA8TgSLTK9MLASLv3oXgoVgoVduQgSLLzwITSwEi9DAMrEQLDq9MrEQLCIHoWAhWIQGlpsQwSIzsEwsBItOr0wsBIvKQWhiIViEBpZgIVhkeuUmRLCoHIQmFoJFaGCZWAgWmYFlYiFYdHolWAgWlYPQTYhg0RlYJhaCRadXJhaCReUgNLEQLEIDS7AQLDK9chMiWFQOQhMLwSI0sEwsBIvMwDKxECw6vRIsBIvKQegmRLDoDCwTC8Gi0ysTC8GichCaWAgWoYElWAgWmYHlJkSw6PTKxEKwiByEJhaCRWhgmVgIFh/BQrBwELoJESzWDiwTC8EysEwsBAu9MrEQLNYehIKFYBlYbkIEC70ysRAs9h6EJhaCZWCZWAgWeiVYCBarg+W9ChZ6ZWIhWOiViYVgIVgIFnqlWAgW4/7sgoVgoVc+uyNYOAhNLATLwBIsBAsDy02IYKFXJpZg4SA0sRAsDCwTC8Fica88WsHCQegmRLAwsEwsBIu1A8vEEiz0ysRCsHAQChaCxeSBdbkJESwivbp/fcz5awoWDsJz+8fEQrBoHIQP/Nv8PQULvTrWEjchgkXkIHQTIlh0BpaJhWARGFhPJdLEEiz06lxHfHZHsGgchG5CBIvOQegmRLDIHIQmFoJF5iA0sRAsOgfh5bM7gsXggXU/XEp/WsFCr86daG5CBIvGQWhiIViEBpaJhWDR6ZXP7ggWkYPQTYhgERpYbkIEi06vTCwEi8hBaGIhWIQGls/uCBbTBtb93s/gryxY6NW5argJESwaB6GJhWCROQgf+DFMLMFCr85tHBMLwWLMQXgJFoLFVxyED6TTTShYGFjnBo6JhWBR6ZXP7ggWlYPw8n+7I1hkBpabEMGi0yuf3REsKgehiYVgERpYPrsjWLw+sMYkVLAEC706lwkTC8Hi1YPwHvRDCZZgYWCd+9LtszuCReMgdBMiWHQOQjchgkXmIHQTIlhkDkITC8GicxCaWAgWmYPw8tkdwaIzsNyECBadXplYCBaRg9DEQrAIDSyf3REsOr1yEyJYVA5CNyGCxeMDa3BTPQLBwsA6N2NMLASLxkFoYiFYZA7Cy2d3BIvMQegmRLDIHIRuQgSLzEFoYiFYdA7CB9LqMQgWenVsvvjsjmAJViZYbkIES68yvfLZHcFa/jcs9crEQrD0KvFfCJ/5ef+0awe5cSRJFAVLfv9Da8EFuSABAUxl1gs3mwPMqEbx+nui/Y0QLByEU/kfbGIJFg7CzP9iwRIsHISdTegvhWDhIDSxECy2HYR/fHZHsAysUAJ8dkew9KpTAMFCsByEmQD47I5gGVid929iIVh6lXn+PrsjWA7CzFzx2R3BMrA6a0WwECwDK3Nd+eyOYOlVZ6uYWAiWgzAzVXx2R7AMrMy799kdwdKrzrMXLATLQZg5rHx2R7AMrM6jN7EQLL3KvHmf3REsB2HmyfvsjmAZWJ2JIlgIloGVefA+uyNYepUZKG5CBMtB2NknPrsjWAZWZp6YWAiWXnXeumAhWA7CzDXlszuCZWBltombEMEysDoP3Wd3BEuvMu/cxEKwHISdZy5YCJaBlXnlPrsjWHqVeeRuQgTLQdh54z67I1gGVmaTmFgIloHVmSSChWDpVeaE8tkdwXIQZgaJmxDBMrA6e8RndwRLrzKP28RCsByEnbctWAiWgZW5nnx2R7D0KvOy3YQIlmB1HrbP7giWXmWGiImFYJ30f9LhwfLZHcHSq86r9tkdwXIQZlaImxDBMrA6IyTzp5vxYgSL1QdhZmKNuSZYrD8Ib8jy7/98M+5LwcJBeE+Xr6qVT/iChYH1zjfh+IQvWOjVvUvywv8DBEuwWH0QvudNOONf6xIsDKzCxJrxr3UJFnpVCNb491AFCwfhk3X+18rMZH4ywWLfwFqT56tqZWIJFo8NrPd5e49/dp/p/WiChYPwzD/wXBMrN6Fg4SB88iac6e5SwcJBeGai56JaCZZgsf4gfGRizRk/nGDhIDzvD33BtDKxBAsH4e0Ta+awn06wcBAeGqyZA387wcJBeNife6777/CXVLDYfRDe8Aefo389weLcgTVr/+QmlmDhIAx9vBMswcJBuCpYbkLBYvdB6CZEsPQq9doEC8FyEGbumXETIlgGVuatmVgIloGVeWqChWDpVeaYcRMiWA7CzkMzsRAsAyvzzkawECy9qlwybkIEy0HYeWUmFoJlYGUemWAhWAZW5425CREsvco8sREsBMuuqBwxbkIEyyvtPDA3IYKlV5n35SZEsIyKl1/DTShYOAhNLARLr9Y+LsFCsByEfhA3oWDhIDSxECwDa/HLEiwES69MLDehYOEgdBMiWAbW3mclWAiWXplYbkLBwkFoYiFYBtbeNzWChWBtfJbjlzFfBQsHoZvQxBIsB6EH5SZEsByEam7BChYOwtUTy19kwXIQGlhuQgTLQSjoJpZg4SB0EyJYDsLNT8lNiGA5CP1G/rkgWBhYgoVg6dXed+QmRLAchH4m/2gQLAysrRPLX2jB0iuPyE2IYDkI/VL+6SBYvNVuGD+VYAkWldngt3ITChYOQhNLsATLQej9tCeWv9aCZWB5Pm5CBMtBaJBe+3vLlWA5CPUqMbHESrAMLAdhY2KplWDplUeUCJZDULAES68aN6FaCZZeOQgbE0utBGvJ721g5SeWWgmWXulVY2KJlWA5CB2EjWCplWAZWHqVuAkdgoKlVzZAY2KplWA5CA2sxsRSK8EysPSqMbHUSrAMLAdhI1hiJVh6ZWA1bkK1EiwHoV4lJpZDULAMLJOgMbHUSrD0ysBqTCy1EiwchI2fUK0Ei4+F9aPX539e4yB8bqSqlWBx3XP9+p/vWKm+/wkWnD+x1EqwIBEsh6BgQaNYaiVY0AiWWgkW/Ne/rWolWLBsYomVYEEjWGolWJC4CR2CggWNiaVWggWNiaVWggWNiaVWggWNYImVYEHjJlQrwYLExHIIChY0JpZaCRY0JpZaCRY0gqVWggWNm1CsBAsaE0utBAsSE8shKFjQmFhqJVjQCJZaCRY0bkK1EixoTCyxEixoTCy1EiyITCw/gWABCBaAYAGCBSBYAIIFCBaAYAEIFiBYAIIFIFiAYAEIFoBgAYIFIFgAggUIFoBgAQgWIFgAggUgWIBgAQgWIFgAggUgWIBgAQgWgGABggUgWACCBQgWgGABCBYgWACCBSBYgGABCBaAYAGCBSBYAIIFCBaAYAEIFiBYAIIFIFiAYAEIFiBYAIIFIFiAYAEIFoBgAYIFIFgAggUIFoBgAQgWIFgAggUgWIBgAQgWgGABggUgWACCBQgWgGABCBYgWACCBSBYgGABCBYgWACCBSBYwEp/AccrIob/3u7aAAAAAElFTkSuQmCC;clipPath=inset(8.93% 28% 11.31% 24%);" vertex="1" parent="1">
          <mxGeometry x="62" y="49.43" width="35" height="32.57" as="geometry" />
        </mxCell>
        <mxCell id="WvL-EfqDoBBDocNPM3JB-3" value="" style="shape=image;verticalLabelPosition=bottom;labelBackgroundColor=default;verticalAlign=top;aspect=fixed;imageAspect=0;image=data:image/png,iVBORw0KGgoAAAANSUhEUgAAAQAAAAEACAYAAABccqhmAAAABHNCSVQICAgIfAhkiAAAFqdJREFUeJzt3V9sVFdiBvDv3PEfyJjY2W0Ws0piUGClPKQYVa2U7qZjW2raXTUNpWkfulHj0Dy1CmGzUiPwEpvgMd2HRmRRXqINASn0ZWnKKtqkWrXAFHcj9SE42lUjFdKAUhVTdjcGewBjzz198AxcLvbM/X/OPef7PeWP587BzPnmzP3m3gMQEREREREREREREREREREREREREREREVGeCNUDyJNSudoP1+1RPQ5qrrJnzSnVY8gLBoBPaVT2oPP6gCPlAOD2C4iS6jFRdBKyAjhTrhCnML/6VGWvmFE9Jp0wAOpK+2YHHCF2CoGnVI+F0iMljrhSHuYqYYn1AVDaNzvgOBjjO71dJGTFdTFmexBYGwClUdnjtFcP8x3fblLix+5CcdjWjwZWBkBp3+xAwRHHAXSrHgtp4UrNlVttXA04qgeQtaFydbjgiJPg5KfbuguOODlUrg6rHkjWrFoBLP0Fy7dVj4N0Jp47MVI8rHoUWbEmADj5KTh7QsCKAChNXNtakO4/qR4H5UdNOH9S2X3PcdXjSJvxAVDaf319wa1NgZ/5KZwrNafQX9m1+rzqgaTJ+JOAjrt4GJz8FF53/bVjNKMDYKhcHeYXfCgqAVEyvRkw9iNAaVT2FDqq58F3f4rnSu1mcb2pXxQydgXgdMztBCc/xdddfy0ZycgVQP3E32eqx0HmqDmFDSaeEDRyBeDUagdUj4HMYupryrgVQP17/idVj4PMU3PloGnXCxi3AigIcVj1GMhMjhDGrQKMCoCh8bmdEOhTPQ4ykxDYPDRu1glBYz4CsPajjBhVCxqzAnA6ro2Bk5/S111/rRnBiBUAaz/Kmim1oBErABu+s016MeU1l/sAKE1c28rv+1PWBESptG92QPU44sp9ABRc17hqhvLBhMo51wEwWJ4dY+1Hygj05b0WzO1JQNZ+pIlc14K5XQE47dUD4OQn9XJdC+ZyBVAqV/sLkGdUj4OooQaxpTJSnFI9jrByuQJwwBN/pJe8viZzFwCs/UhHAqJUmri2VfU4wspVAJRGZQ9rP9JVHl+buQoAp4NX+5HGBPoGy7NjqocRRm5OAvL+/pQTuaoFc7MCcGq1MXDyk/666xV1LuRiBcDbfFHe5KUWzMUKwHEwpnoMRGHkpRbUPgC4uw/lUV5qQa0/ApRGZU+hvTrFM/+USxIXagvFfp1PCGq9AmDtR7km0Kf7rkLargB4my8yhNbbjGu7AjB1JxayTne9wtaSlisA1n5kGl13FdJyBWDiDixkN12rbO0CYKhcHRYCm1WPgyhJAqI0VK4Oqx6Hn1YfAXibLzKahrWgVisA7u5DRtOwFtRmBcDajyyhVS2ozQrAlJ1WiFro1qni1mIFwNqPbKNLLajFCsCEHVaIwtCl6lYeAEPj/L4/2UcIbNahFlT6EYC1H1lO+e3DlK4AWPuR5bpV14LKVgDc3YdoSc0pbFBVCypbAeTllklEaVNZCyoJAO7uQ3SbEHiqtG92QMVzKwmAPO6gQpQmVVV45gEwWJ4dY+1H5CPQNzSe/QnBTE8CsvYjairzWjDTFUB9xxROfqLldder8cxktgLg9/2JgsmyFsxsBaDrLZGIdJPllbGZBIDtu/v0dmtx0WWu2Pw7ExClrGrB1AOgNCp7IOVY2s+jq5ef7MSbz6/GxrXKr7vKjY1rHbz5/Gq8/GSn6qEok1UtmPqr0ubdfV5+shNPPNqGYqfAa8+sYggEsHGtg9eeWYVip8ATj7bZGwIZ1YKprrPqt/magoVn/huT36s6L/HSOzdw7pKraFR6805+r5/+fBHff29e0aiUSr0WTPUtqb4jCid/HVcCK1tp8gOweSXQXa/OU5PaCsDW2m+lye/FlcCdmk1+L1tXAjWILZWR4lQax07trUiXWx5lKcjkB7gS8Ao6+QF7VwJpXjmbyivQxt19gk7+BoZAuMnfYGMICIhSaeLa1jSOnfirrzQqewBp1bt/2MnfYHMIRJn8DTaGQFpX0Cb+yqvf4siaE39RJ3+DjSEQZ/I3WBcCAn2D5dmx5A+bINt294k7+b1sOTGYxOT3suzEYOK1YKJvOzrteJK2JCc/sLQS+Ovf7wCkTOyYOnr16eQmP2DdSiDxWjCxACjtmx0QAk8ldTydJT35AeDTSzXsfucyFudnjQ6BV47dQHU+2T+fTSEgBJ4tlav9SR0vsQCwZXefNCb/uekFvPDDS5i9vggpa0aHwLlLLl56hyEQR5K1YCIBYMvuPmlN/h1vXcbcjduf/RkC0dgSAgKilNSuQrE/jNlym6+sJr+XEAW0da4BhJmXxiZ9QrDBihODEhdqC8X+uCcEY68AbNjdR8XkB7gSiMqKlYBAXxK7CsWKXhtqP1WT34srgWgsWAlcqTmF/ji3D4u1Asjy1kUq6DD5Aa4EorJgJdBdv+I2ssiRa/rVfrpMfi+uBKIxfSVQc+VgZc+aU1EeG3kFYHLtp+PkB7gSiMr0lUCcG+5GCgCTd/fRdfI3MASiMTkE4tSCoQOgNCp7BITSPc3TpPPkb2AIRPPEo21wazcTPaY2pBxbuhI3nNABwN19gktj8jcwBKKp3azCXTTwfEDEWjBUAJTK1X4h8GzYJ7FRmpO/gSEQTW3hmpEhICBGS/uvrw/zmFABkOatiUySxeRvYAhEY2oIhL0iN3AAlCaubbV5d5+gspz8DQyBaEwMASHwVJhdhQIFQGlU9qR1SyLTZD35G2wJgaSZGAJhbsgbKABs3t0nLBWTv8GGEEiDaSEgBDYHrQVbBkBp//X1Jtd+pjE9BNJiWggA8kCQWrBlANi6u0+eMQSiMSwEuoPUgk0DoH6bL9Z+OcQQiMakEAhSCzYNgDjfMSb1GALRmBQCrWrBFQNgqFwdZu2XfwyBaEwJgVa14LIBUBqVPZByLK1BUbYYAtGYEgLNrtxdNgBY+5mHIRCNESEg0Dc0vvwJwbsCoF77jaY/KsoaQyAaQ0Jg2asF7woAm3b3sRFDIBoDQqC7fgPfO9wRADbt7mMzhkA0eQ8BAfmivxa8IwDCfIeY8o0hEE3eQ8B/I99bATBUrg4Lgc2Zj4iUYQhEk+cQEBAlby14ewXA2s9KDIFo8hwC3i/4OcDSuz9rP3sxBKLJawh4VwEOAEgptyodESnHEIgmryHgCDEMAG2lUdkjRJVn/jXTtcrB44+sRu99BWzqbcfZ6QVMf1HDmc/mMT2zGOvYm9a14xuPrMa6nqU7IF+cWcTkJ9dx9uICFudnI28+0tstsLmvgN5uBw+vdfDpJRfTV1z8+3/VMHfD3GCpLVwDADht+bnteP0iv+G2Qsc1vvtr5rmhe/Hnj3WhuOr2KZpvPLL61j8f+3AOh05cDX3zkS0bOvHCt3qwsbf97uccvBfTMzXsf/fXmDofLgS6Vgk8+3g7tv32ncf9+tcKAIDqvMQ//scijpw29JbcyGcIlCaubXWklAOqB0JLulY5OPQ3a/Hc4L13TH6/px/rwg/+6n50NfkZv29uKeL17fcvO/kbensKeH37/fjD/lWBPw50rRJ47ZlVd01+r2KnwF8+3o43n1+NrlVmbmsG5O/jgCPlgAMh16seCC3Zve2+phPUa2NvOya+/eVAP7tlQyd2bbsv8Dh2bbsP/evbAoXAq0934uGvBAuih7/i4G//KD/vkFHkKwTcfoeX/Ophy4bOO5b5QfSv78Q3txRb/twL3wq9YQx2bftSyxODf/Cbbdj8UCHUcb/+tQI294V7TN7kJQQERH+s7cEpOX/2WFe0x/1u88dtWtceeFXh1dtTwKZ17U1D4E9/J/xxAWDbb8H4tiEnIdDNANDElg3RlsatJnfYVcVyj10pBIIu/f22rO+wonLMQwgwADTR7KRfK83CY02M4zZqQuDuEIizjC+ucqz53oHuIcAAoMCSnrQMAfUYAJqoxthQ5MxnK7+4ZmMc9+IyXzhqTNqPz0f/MpL3z8oQUIsBoIlmk7iZc9MLTf//5CfXIx232WMbk/bTiDv1+P+sDAF1HAlZUT0IAn704Vy0x/2s+ePOXlxoGRLLmZ6p4ezFlR8nZQ0/+tnV0McFlv+zMgQUkLjgQIrzqsdBS++KYd+tp87P44Mz1ZY/d/D9mdDj2f/ur1v+zPsfzWHqfLgX8+Qn11dc7TAEsiWBKUcIcUr1QGjJxLtfBH63Pje9gN1HfxXoZ898No/9734ReBz73/0i8EeS3Ud/FWrMEy3GwRDIkJBTTu3mPcfVjoIa5m642P7GJbx98mrTk4LHPpwLvQ35B2eqePHQ5aaTdXqmhhcPXQ60qvCOecdbl3GsyUeY6g0Xb5+8iu1vXAo0ZoZANlw4xwUADI7PHefNQJf86+7WX61t5vf2/E8i41jucuC5Gy5O/+eNVC8HjqO3pw1bNnTedQnz6U+uR9o2XYjCXVcl6vL3k6RC+z3ZX0UoceHE97rWtwGAEOI4IBkAGpm74YZ6Jw7j7MWF2JN9OdMzi/jgTLxw8mqsBKLenyAvVFxKLIU8DNRrwBMjxcOQuJDZsxMFxI8D6XCdtsOA93sAQoxl9uxEITAEkiUljlR2rT4PeALgxEjxsJT4OPVnJ4rgVggYLoMQuOIWCmONf7njm4CulMtuIEikAylrqoeQiTRDQEIeaLz7A74AqOxZc0pK/DiVZyaiwFIJAYkL7s2uO3b/uutaALdQ4CqASAOJh4AQY5W94o6vhd4VAJVdq89LyL3JPSsRRZVUCEjIyomR4mH/f1/2asD6MuFK7GclotiSCAHXvb0dmNeyAbC0TBD8KECkiTghICWOVPasObXc/1vxfgCsBYn0EjEErrgLxRXfzJveEIS1IJFewoaAhDzgP/Hn1TQAWAsS6SdwCEhcODmyZqzZj7S8JRhrQSL9BAmBmuO0nLstA4C1IJGemoWAhKxUdre+10egm4KyFiTS00oh4KL1uz8QMABYCwYXZsdeCmfTumhbkZnOHwJS4khlpDgV5LGBX60nRoqHeQfh1sJu203BbFrXjh9sv1/1MLTlCYGmtZ9fqFfqSt8mots29rYzBBLWmPxxtk+zQW3hGmq1m683q/38Qv1G67XgkfBDswtDIDmc/CFIfF555UujYR4S+rdav5kATwi2wBCIj5M/HCnc7WEfE/o3W68FD7T+SWIIRMfJH46UmJwc7/uXsI+L9Nt1b3YdMPUmoj/9eXJ3tQUYAlGkNfn/+cy1RI+nlbaOZ6M8LNJvuLJXzJh6E9HvvzfPEFAozck/EWC7szwSEG9M7l3731EeG/m3bHItyBBQg5M/PAlcdRe79kR9fKzftMm1IEMgW5z80UiJfZN/1xN840ef2NutDI7PHRYCkT5/5MHLT3biiUfbEj3muemF0Hv7mYyTPyKJz0+XH3woziFi/8ZNrwW5EkgXJ390UWo/v9i/dRtqQYZAOjj5o4ta+/kl8ps3uRZsYAgki5M/poi1n18iv32Ta0EvhkAyOPnjERDlqLWfX2J/AybXgl4MgXg4+eOp135/n9TxEv1bMLkW9EorBCa+/eVEj6mj8l/8Bid/DMLFd+PUfn6J/k3YdLVg0iFQveHi4PuBr+LMrZF/+CWqCdafNk1+KeUvTk88+MMkj5n4mtP0WtArqRCo3nCx49BlnL24kMCo9Hb24gJ2HLqcSAjYNPkBAEJ+J+lDJh4ANtSCXnFDwKbJ35BECFg3+aX4SRK1n18qZ51sqAW9ooaAjZO/IU4IWDf5Aci29h1pHDeVALClFvQKGwI2T/6GKCFg4+RPsvbzS613sqUW9AoaApz8t4UJARsnf9K1n1+qxbMttaBXqxDg5L9bkBCwcfIDydd+dx0/rQM3mH614EqWu4qwekNix6H/4+RfwUpfErJ18kuJycnyg4+n+Rypf/XMplrQy78SqM5z8rey3ErA1skPABBu6lvypR4AttWCXo0QqM5L7HiLy/4gvCFg8+SXEkfTqP38Uv8IAAClUdlTaK9OQaAvi+fTzf3FefzvLw2+IWUKenvaMD2T7Net80ICV1Ho2JLWmX+vTK4+sbEW9Lo81wEhCqqHkSu2Tn4AcCAOZjH5l54rIzbWgrcIgbbONQwBak3i8zRrP79Mrz+1sRa8hSFAQUi8mmbt55fJOQAvW2vBW6TE4vwspKypHglpJovazy/zO1DYWgvewpUArSSD2s8v8wCwuRa8hSFAPlnVfn5K7kFl29WCy2IIUJ0ErqK25gUVz60kACp7xUzNcXaqeG6tMAQI9dovwxN/XpmfBPQaLM+eEhAllWPQAk8M2iuB3X3iUHobWhdcBQDgSsBiUoiXVD6/0gCojBSnbLmJaEsMAess7e7zwDGVY1B+I3p3obgTNteCXgwBqwhZeFH1GJQHQGWvmLG+FvRiCFhBShw9PfHVj1SPQ3kAAMDJkTVj1teCXgwBo6ms/fy0CAAAYC3owxAwlsraz09pDejHWnAZrAjNorj289NmBQCwFlwWVwJGkcLdrnoMXloFAGvBFTAEjLBU+2X/ff9mtAoAgLXgihgC+dfWod1l8NoFAGvBJhgCuSUg3sjqNl9haBcAAGvBphgCuVPf3WeP6nEsR8sAAFgLNsUQyBUpsU+X2s9PqxrQj7VgC6wI9adZ7een7QoAYC3YElcC2tOt9vPTOgBYCwbAENCWjrWfn9YBALAWDIQhoCcNaz8/7QOAtWBADAGtCIiyjrWfn/YBALAWDIwhoIV67ZfZ7j5x5CIAANaCgTEElBMuvqtr7eendQ3ox1owBFaESkgpfzFZfuhR1eMIKjcrAIC1YChcCagh5HdUDyGMXAUAa8GQGALZkuInutd+frkKAIC1YGgMgczItvYdqscQVu4CgLVgBAyB1OWl9vPLXQAArAUjYQikJk+1n18uAwBgLRgJQyAVear9/HJVA/qxFoyIFWFipMTkZPnBx1WPI6rcrgAA1oKRcSWQHOHuVT2EOHIdAKwFY2AIxCYljuat9vPLdQAArAVjYQhEJoGraOt4RfU44sp9ALAWjIkhEIkDcTCPtZ9f7gMAYC0YG0MgHInP81r7+RkRAABrwdgYAsFJvJrX2s8v1zWgH2vBBLAibCrvtZ+fMSsAAHCdtmHVY8g9rgSay3nt52dUAFR2rT4vIV5XPY7cYwgsy4Taz8+oAAAA9+Y9Y2AtGB9D4A4SuIramhdUjyNpxgVAZa+YgcSY6nEYgSFwiwNx0JQTf15GnQT0GhqfOw+BPtXjMILtJwY1390nDuNWAA01KYdVj8EYlq8EpBAvqR5DWoxdAQCsBRNn4UrAtNrPz9gVAMBaMHEWrgSELLyoegxpMjoAlmpBaVRvq5xFISAgyqcnvvqR6nGkyeiPAA2D43NTQmCz6nEYxfCPA3m7v39URq8AGtyF4gD43YBkGbwSWLrUt/Mp1ePIghUBUNkrZmoQA2AIJMvAEJDAVeEWBk241DcIKz4CNJTK1f4C5CkA3arHYhRDPg40Jr/pn/u9rFgBNFRGilM1iAHeOyBhBqwEbJz8gGUrgIbSqOxxOuaO8zsCCcvpSkBKTKK25o9N/KpvK1YGQMPQ+NxOCIyBHwmSk6MQkMBVB+Lgv40/8D3VY1HF6gAAgNL+6+udWm1MCDyreizGyEEISImjaOt4xZaTfSuxPgAaSvuvr3dcd6eAHAZXBPFpGAISuAqJ9zjxb2MALKO0b3bAcZytgNsvIPrBQIhGgxCQEpOOEB+7wKnJ8QeOKRsIEREREREREREREREREREREREREREREREREVEc/w/y4bVYqY0/TwAAAABJRU5ErkJggg==;" vertex="1" parent="1">
          <mxGeometry x="97.72" y="49.43" width="32.57" height="32.57" as="geometry" />
        </mxCell>
        <mxCell id="WvL-EfqDoBBDocNPM3JB-4" value="" style="shape=image;verticalLabelPosition=bottom;labelBackgroundColor=default;verticalAlign=top;aspect=fixed;imageAspect=0;image=data:image/png,iVBORw0KGgoAAAANSUhEUgAAAgAAAAFeCAMAAADEylfSAAABLFBMVEUAAAD/7qH/0hT/yhT/vgz/wiD/+ur/3lD/whD/5qX/zhT/0lD/6pH/+uL/2kD/5p3/+tr/xhD/zkT/5oX/vhD/whj/1jD/yhD/4pX/9s7/zjz/5nX/vhT/9tr///r/1iz/3oX/8r7/yjj/4mX/8tL/0hz/3n3/7qX/xjD///b/3ln/8sb/2nX/xiz/2kj/7r7/2m3/6on/xiT/2jj/7rb/1mH/6q76///G4u6Rxt5pstZEnco4mcZMocr/0lnO5vKVyuJQpc48ncqJwt7C3u663uqq0ub/4m222up1utpZqs7S6vL/1iTu9vplstJdrtLm8vr/7q7a7vb/4l3///Khzubi7vb/4o2dzuLy+vqFwt7/1mVxttZ9vtr/9tL/zkyu1ub/8rb/6pn/5n3dAh5wAAAAAXRSTlMAQObYZgAAEcdJREFUeNrs2IWJhGEQg+Gsu7v+bufef2lXxHyQYclTROANHkirHUCna9frQwgG7QCGXbsRhKDfDmDctZtAGKZOBqA3gzDMnQzAAsKwbAew6pqtIRSbdgDbrtVuBqHYt+0OXbMjhOLkYwDOEI6LixPoeoNQ3CMXDRhDOBIXDZhCSDIPDXjNIRz3IsAAbLtGJYSk8jAAdQMheXLQgNdnCEm/cHACvUBYWg4a8LWBsLw5aMB3CMvMwQB8QGg++QPw1UBovvkN+AOhOfFPoF8Iz4begL0GwhPRT6A/SBj/7NsDkmxhDIbh3Du2jeKUZgFHX9v20f4XMqU28g8yzLODrqSd17Id10PCdWwy9vzlhwBJ4qXSbgZZN5e3SC1VyGAoUbTITEn8O+D7Q6CywQNTVgWTqjUy8Vj/6u+AR8RoNDGp1SC1QLuFadkyGeh89QvAHjFSHqYluqTmtDOYYxOv97UvAHwI1PYwy9MNMJo/vAZx+k9f+iMQfwduVTHPq5Hi5w9UPuMU5Fw0BBpgkaxNaoKfwWIpYmx97Y9A99wbQCMLdgNU18MSFbYJ/9qPgAExQuDtG6DzRzaSbsLXZEOgKpbJ5klx8wcK0k34tmgI5GOFMilu/giFm/Bd2TvwPJgNUHYWq8TCfwSeyIZAA7xrA3T+iGWb8N1z2RAoxLs2QOePWPYU5ET4DrwMRqjzXy2UbcLPhUOgPFbQDSiDVRNtwq+kQyAr+64N0PknZJvwbfE7cBesUOe/XFm0Cd+VD4G64OV0/su8sHeGTUlFQRh+rQHNZNTRVJVQKTLENNW8KKpBpVSqSFmAllX//z8006f64px799xz9iz7fm5q5Hna6y57zj1P90z4kIODQLsGP2YPfZgrgw/momu2CuK+AFzDNNENwQDB6ZD5Y8VfD7hZhm8DlH+25K8H3AYsG/AtQqwofwz46wFfAdYNuOknA3Yt8MeatwKQyZL2ndWAng3+OX+LADvUH5lugPLHhrce8GFaP/ReF6ZR/tjy1QNmcg5+bLmJLH0Q3731gKMOxBfM/8bSxzDhaxHg1kPpU/72z4SPe3ghxBuTH/4MBlH+FV894Eza4496C2LTNePv4kz4tPs3AqkB3Qsj/k7OhA8R9sC9G6D8celpCPQVYGCA8scTPwVgDnBiQK2t/FM9Ez7s84UQx31pQKtukT+W/fSAz2AlTaIByh+DXoZARYCFAco/66UA5CtwakBV+ad1JnyScBDInQENMQa0Dyj87Z8Jv+/0jUBqQLtmmf+Ylx6wAqt520hkgPKnr4IM83ghRNXEgKbyt38mfIhwEMiBAcKOjx/Z5z/rowCsA2oA4We0yB/zHnrAVwATA5R/YcF9D7hZ9vj5HCt/4plw+iLAjtffkDoINO/S4I8n7gvAIaAGEGYdVvkXSs6HQJksuBig/HHpvgd84L9Pfq387ZwJHyYcBPJqQA+B5UdK/LMl1z1gJufguxJxBnRS4o8B54sAo0y+Le0pf/qZ8HHCHjgHA5R/znUP+CgHNgbcRGL5O1oFmXZxEEgN6KXHH1uOe8A5QA1gxP+74x4w/xjO0vpANUA+f0w4LgBfgzo5IZ8/FtwWgCLiRQ2I3qfKv+KgByQcBFIDoptU+ePEbQ/4DFADOPEvnDrtAZ8DPA340OpP/vjptADkK/CQ7l6wx8e75ynzxxOniwCrrP4b8Tege0Hg7+BM+BDhIJAawIE/lp32gOsAawPafccfgy4LwEuAjwH8j4+3HPDP0hYBUtwDVwNa9fT5Y8TlEGg7gPt0a+2+4o81hz3gqyBG6rWP/cR/zOEQKL+z7So5ggFMjo9/ccIfG46Xwd0kk0PoBrRrTvhjijQE4podgIUB/PnPiiwA1wDVgLf9wR/zpCEQ07woW1iubErnTz8TPs6Uf74ChG1AteGIP5ZoQyCeeQbwMIA/f5wILABzAAMD2POnnwlnWgAe5WDNgI5w/rgU2AOOwixXTA1o7rvjjxV5PeCh3U+6I5p/tiSuB9zMgosB/PljQF4BWLf+ab+Ryx+D4grAagqfdw/OcuWWf05cD1gsI2QDOm75Y0RaD5h/ms6Vez2Z/LFFWQTgmJm0uu5vkUT+36UVgFvC3MX/8fFd1/wxIWwIlMkhYAN6zvljQVgPuAMwMoA//4qwHvA65en7XlcWf8zL6gFflH29foOeyAf/wqmcRQD6meO2TwOiGw/88VNWAXgGcDKAP388EdUDzgFODDgTwJ98Jnya7RII3QD3x8e7fvhjWVQPOAoEakD3wg9/DErqAQ8dnsWqt0Twz0oqAJtZl6cx6y0B/PFLUgFYB1waUGuHzx9rgnrAVSBMA1p1b/zHBA2BimVwMYA/f/qZ8GmOSyDMDODPH1NyhkAzXu7lqlWD5j8rZxHgFvBiQINoQPvAI3/Mi+kBMzkEaUC75pM/FsT0gDsAOwP4818SUwCuAT4G8OdPPxM+fHemx+/O0N2ZJC2BuL+hu1FlwJ9wJpxrhjlcPB/dEAzgzR+X93hniLAEwsAA9vyxwpv/fcISCAMD+PPPMn8CTBKWQBgYwJ4/BnjznyYsgTAwgD9/DHLATP+y6RDpJ/pGMIAr/xzvAjBOWAIhh36tLH/+GJFRANYBjgbw548tES3gKsDSAP78v4uYARXLYGkAf/6YkFAA8k8Blgbw548pCTOgGTjNLsEAbvwrEmZAt3CcDsEAXvwxL2AGlMmBqQH8+RdOBbSAOwBTA9jzx08BM6BrgK0B3PnjSfgF4EUZjA1gzv9zKfgWMF+Bp/wwMoA1fyyHPwN6Bm9pGhnAmT9Wgi8AcwB3AxjzzwY/A3qUA38D2PLHr+BnQKNAAAZw5Y+10GdAh0BQBkRm579qLTjJWOgt4GYW3nNsYsCZ8R/+myO4yUboM6B1MEjPgOh7/M1Zw4j/LhxlKvACsAoGMaPajnEBfOMMbjIbeAtYLINBzLCeA0DXrAC8h6P8DnsGlH8MHjkzfay/3TdKE46yEHYBmAGXXBi+bXDXTIAW3GQp7BnQLXjEEOwegBszAeAoJ3wLAGEJhOu3Qgd/K4VJ6nCTQinoGdA2mMT02R4BdVYCXAY9BL4Go1SNnuymFaAGN1lhOwMiLoEwfb87gL19o0QA+ngVZHiSsATCeDfIvAuowkUGQi4Ai2CV94ZdwNt9RpPgwYBnQHPglZrJHMD8q4CDCOknx7YFJCyBcG4C2jB/Bhwj/YwEPAMaBa9cGM/3zw7MSsAZfKVQuTu/Nu7M/OD/WSAUAMISCMOVkDb+5mjfKHsRZGQqhRnQZhms0m7EKepXZgb0ICKzacyA1sEqrXo8nrv9ZMDvFFrA1bD5A+/7yIAF+zOgYjk8/q/xb6LzvjGgYr8A5B+Hx7+D/9OtmxnwBqFn3v4MaCZ8/kDrwMyAjrQnAL0FvBXA36BxEGLAkvUZUCYXHP9jg++PpRpwYr0AbAfHv2kwPJJqQOHU9gzoWgx/oCPfgCXCDIj/Ekj7gMQf6Ik34ITQAjJeAjE/5Nt4Z3DzvFwDCqeWZ0CLofGv4s5EF7INuLRcAOaE8QfO6oYGXCHEPLE7A3qUk8Yf+FIzNKCJ8FIo2W0BR8PiXzuCQY4acg24tDsDOgyMf5uwTCbDgE9WC8BmWSR/4FiqAZ9LVmdA60L5A7tCDVi2OgNaDYp/vY0Y+SbTgBWbLWCxHBT/FuIk2pNowOeSxRlQ/rFg/kD3g0ADlm0WgBkB/A2+VjLIO4SSQYszoNuQ+F+0CH8xYbrELFmLLWAmFxL/LpKk2hBmwIDFArAtnz/Q3JdlwKC9AnDdD/yBjigDsvZmQC/K4fA/7yJ53kgyYIQwA+K5BFKtpX7De0+QAWvWWsBFJvwbMfirATlrM6C5PuIP7EoxYMRWAXiUk8mf/pvgkYAngEEBGBXKn25ArQ2+GbPVAh72G3/ghwQDNizNgDbLfccfaAowYMtSAVgPkr8aMGZpEXA1FP7nXZf/JH8DNuzMgIrlQPjfRIAakORisGnCEohg/kC1FrIBs3ZawJn+5Q+0QzZgwsoM6FYAfycGfOH4BKAXgExOAn/64XPyBpr7zFppAbdl8qfvCfI34LeNGdB1sPzVgAULBeBFWfkDrYsQDahYmAHlK4DyB7ohGjBPmAHxWQJpJuWvBizQZ0Bz/vnvs+APdG9CM2DJtAU0WAJR/kAUmgEn9BnQA+WfyIAzHheDkQvAofJPtip60Q3nCTBEWALhzF8NOCHPgNYD5q8GFE6pBWA1AP7fIjhOJxQDLqkzoGIA/HsA1ADK1ZCTMZdAlD9wFYQBhRJxBjSj/Emror4NuCS2gLdh81cDPtFmQJms8r8j7xqGBkS8LgYzLwDbyt/KsvCNLwOWaS3gdeD81YAVkwKQeAlE+QMfa5wN+FyiFID8U/n86WlzNmCZNANaDJ2/GjBIKQBz8JjjYPgDrTpXA7ImMyCWSyAdG/zVgAHKEPhB8PzVgEHCDOhQ+RNWRXkYkCXMgDbLyj8NA3rMLgYbsrIEovyB7jk/A9aSz4BWefPvgF+iG24G5JIXgKIA/mrAiPkMiL4EovyB6BsvA9YSF4AZ5Z8sPU4GjCWeAd1K4K8GbCSdAWWyyj9xXvMxYCvpDGhb+RPS4WLAWNIZ0LXyd2FAx/sTYDyNJRDlD/zgYcBUshlQ/qnyp6bJwYDZhC3gogz+asBEshnQnPJ3uCra8fgEGGK1BLLLij9/A+hPgGlWSyA9afyBas2vAb8TzYAOlb+1tP0asJCkBdwsC+GvBlQSzYDW2fK/QoBpmy0KNpFC5pMUgFW2/JsIMi1/BiwkmAEVxfBXA5YStID5x8rfeloXfgw4STADmlH+KaTrxYDCafwCcCuHvxqwFH8GlMkqf693SzfdPQEmHS6BKH8gcm5A4TR2C3gtiL8acBl7BvSirPy9r4o2qk6uhhynLYHw568GFEpxZ0CLyj/tvHFowGXcFnBO+aefjjsDPsUsAI9ykvirAZ9LMQvAA5ZH6JqQlitHBizHnAEdsuyKmpCXphsDVuLNgDbLovirAZ9L8VrAdYb8G+8gM+8a6RuwHG8GtMqRfxUCY74sXGuDkMFYBaAojL8akI3VAuYfK39Wd0vTDRiI1QLOKH/naadrwGCcAnArjb8akI1TADJZ5c9rVZRuwEicRcBtcfzVgLUYM6Br5e8rrQ8pGZCLMQR+Xlb+zFZF6QaMmM+A8k+581cD6i3EzJr5DGhR+XO7W5puwJh5AZhT/uxWRekGbBi3gJmcQP5qwJbxDOiB8g/kbun6GYwzZlwADpV/MMvC5xH5CXDf6xLIGxp/NeA1TDNlOAPKr/O6NrPWhtzQ75ZunBEvBpv2uQQSHSh/6rLwLswyYdgCFuEwP8j81YA67Qkw7nUJ5L3yp6+KtihPgOFJr0sgNTp/NaAKk/w2awEfwmVaFvirAU3CxWDDfpdAPip/C6uiHcLVkEN+bwKpWuCvBvxIfjXkfc83gRyZ8ddU/7RzBprNBFEUDstvjB8dhn2EAgVYzXYRbVaTSkVQSUDf/ykq4Jb2VHqnXO493xvEXXOIzzc+YJ70C1BNJBBhz/v/gSq6V4fBeusSyDA2359fwEodBsvVvASy4f2b29JndRisWEkgwjvv3ywLH7QLkKuVBCIMU+P9+QVs1AuQ7CQQYb7+/mT3jSq6OmkXIFuWQIQl798iC48HdRgsWZZAhNOXd226+v7UxLZv6jRkByQQ81ry625BMOtPj8B4HPRpyAQkEAPmlfymaR4W5EdejsvpMv7n56EhDdkDCcSG9eP28kEv739n/xF9GrICCYR4AofBCpBAiENu0X9AIoEQl+A0ZAISCImxABlIICTIAiQggRBP4DBYByQQ4pF/4AEQCYS4BKcheyCBkCALUIEEQmIsQAESCHHJf/AfkEggxDV34AEQCYQ4BKchM5BASJAFSEACITEWoAMSCPHJDXgARAIhDsFhsD6CBEJwGrKGlkC4ACW0BMIFyDWABEJwGKwEkEAIDoPlCBIIwWnIFFoC4QJ0sSUQLkAKIIEQnIbsI0ggBIfBagAJhOA0ZAkggRCchsw1tATCBSgBJBCCw2A5ggRCcBgsaSUQ8gGJ19vZCLbJ2wAAAABJRU5ErkJggg==;" vertex="1" parent="1">
          <mxGeometry x="132.11" y="52" width="43.89" height="30" as="geometry" />
        </mxCell>
        <mxCell id="WvL-EfqDoBBDocNPM3JB-5" value="" style="shape=image;verticalLabelPosition=bottom;labelBackgroundColor=default;verticalAlign=top;aspect=fixed;imageAspect=0;image=data:image/png,iVBORw0KGgoAAAANSUhEUgAAAPoAAADKCAMAAAC7SK2iAAAAwFBMVEX///9ssj8AAABkrzDw9+xpsTpmrzVosDlhrStgrSn3+/Th4eFjrjCtra36+vqAgIDPz88kJCSgoKDJyclLS0vY2NiHh4ft7e309PRZWVm9vb3n8uG92q2QkJDf7dcRERF3d3ez1aCMwW3U58pAQEAwMDB8ulZra2tGRkbG37jq8+WayICeyoV2t02TxXaFvmMbGxuq0JTO5MO42Ke1tbWkpKQ4ODh5uFLC3bNvb29iYmKmz5BUVFSYmJhXqRaey4UmKrPcAAAQ6klEQVR4nO1dC3eiOhAWMBEQra21dtVq1dbWWqRqH25b7/7/f3XzAEQhEEii3Xv9zp6zWiHMl8dkZjIJpdIJJ5xwwgkK8DReD79mnvfhatqHN3perKb97rGFUo7u+s/EtAwHwgoAQNM0ACoQQse0LG2+mP5XK6A/9KDlQEw4ERXoWNBbjO1jCyoX5fVcs9istwDQhKPe07HllYWn1cRwKtm0w+Z3zI/hf4H9dMLV3PuNb3nLY0suhu6X6eTm7bM3jGH52PIXRn9uwWK8KaA1+zt1/tizcgxwBnlz/veR746sgj19FxVrxuz29k8cEPazeIsHgOaC8ZSZdVBSXJiaQmM8Rh6Ok55SNs2fNgt0PVMmcQxrnmDjPcPK/PDs0jA0pfX1LSCc7j/nyUJVcgyCLJQ9Qz5xDHO/4WdoUBk/qMdPVTQ5BYT96JPKqNG1H9Tjny1VxDGsYeRRc1LHzg/x82zPUckcd/rwWV1ayT+kx3eBss4eALqBFTOiz6rMjkrZx9iQYr6lA0Bq2I5RowPSx47MGmOqdJhvuRtE2blAq4yWqK7NfpZgytE7DHMEC5FdOETDIVUHv47NfHgw5qihe2tkLlpIwS0NDbj/I+ZI2aE2h1jZ28h8so7r1a4OypwAkAndAxpcHZP5+vDMLerL9RwNeEdkvjw8c8dXbtiatY5n0HWlu6iZqEyCh6NJ7ngGnS01KsEHGDb0EGrw+VjUJ8qt1xisrRnTR13OOBLz2eEb3YqGq+DRprfjKXcfs4rm9I7B/OngzIGzG6KcOsiYPwb1yQGctV3mcM9dKaPBDo/AfKgoDsdEBcRWYFHtH8F7Kx+6uzuTuPmyQNPbMEE4tfAOPK9ZfxKEGJtHsGXtf2DlgGMdmOtEKWDUxDkUxou5B82U9BiZgC5j+kbem5m4MKUadr/37AGraAIBNyxmxH14lMEeotvzxLIIMlAxYutOIY4y2HdQHkJlIVnTS1lJt51DDna7O54Ov55n89FoPvtaLfv0ydMPUwV5aKRbqu6BZvan5WLuWiThEVYqoFKpQGiYljYa4ly/8US68w6sWUaTfkH1ZvxTD7E2YOJsDqBpeL2n0lju2hMwJ5naG5vxSpcduwvXzEj8A47pjmR2eWC4HCEYsvymjvh0YvJN3xKZA1Nj6/UocIBOVUZRDxxiPW0X0PJ4DRXkwRhqjJo1VLx2HEfFgM/8SvtLkVEzdg/umRrGaJlnol4rCVfYMzmZf7zAE8VsmtNAURKbHMPDRR0B3gzhDQsYJ7aChYjFAWIReAuIY5hGxX3uFbXJNNnr7LaKPDBM1DEM0zQtZBOiPuV680Vv2ReanEYVzUl05guiq8kNwuAObWqY6HQ5Hvf73ady2ZbTTXGQipVIWwBLmfoNaS/LW0z7ihysqdQFV4lrCwBa7nBclyZaHFjFS8ugk5caA013pTpvHat4MJGz/iSNOTRmClzpWDCe7Ba0RhKsWVnMIVioaHD7Y/8vdBUImK6o3y4pTaJiLtSotUUsYWzuT0bA0YTI9+VEWqyRoiFuWzFfdrE1Oh3A5+kmoSzFdq1AZXkei39iY70X9S1Nr6jC+5AxnxsjZTFSG4LY35Y7diewirmwf2Q0uqUwmW1lxZNn9seoMymwJ1aGigOKYiYUWsI+p1iKA8i/GcqWoOKCxG01WBtmfCyV43EkK69RPxfv7gAoNd4ATAg82wlyGPkC1GPx7q6Y+dBJ7MpugiQwl0fjimt3Q2kqF07k4BYcTpIuTcZKPDZhqU3bHFWSHfPkfCb+drcltLnale6lqZmJ05aXLLrDO96HwvH2itqFbhuwos4M6hpzF/QexFcaDLWe+Qiywo/MpT6+AbgWpp6c6CMNK3b+xIgZR7R47DpR4qrzOvrWfoLsFuwFXp59QeJzutoUZZwlBljTFWusa9sdEymYicaeFW+yxAmKrEZPox5Nn09GXXikK1vjJvhC8rEXFdPylJldJcBS1JxRm9RB9o2yR1RqkMHMiNsI93elI5045Cm7XDJkSy9ckLha9W6Tw+nY2XEZdqiROul2RfW7UzwamA3inZjsYKudMVpTNwusRB11Q2HCooeFS9NWWQ2Xkme6jWQXBVC4AYXGT9J0yTij1VPtmiRfPw8U7qqdkWnXSfMJM23wlMwD4b0c6rJUKfNK6uS8yBqukG1uZfWYTCjLTZ5RydJ9wuwcTbZ8PUFbTtnhAXMqWHytaQfZw5W96fdZUMGrmtX9k25S+isGRwid7WCIZvXCpM1IwrAntEWy+tSYZ/WAdbOwglcRkwsTmbLCDTxGCdN/E9ZyCua2aZDIxHRVA/AYJazdArawGSt/G8JXIJOVWTZPw7EcS+EdyVIz9jDK4VFe2VEWzlyI5Jt/nPMyDreZcITSh1zTEyOLVjiHRHKrh51dgxy+AZ+OZtibP4v600doYPEsHXGOVoZRI05doppbbVNUuRYM+fo7axISpi5vcitPtvqab6mUV8TkNShhNSft7LNVZIMknPAk1nKZchozsifss0rae9KfRNwoPuYpa057IiZb8XVR6lI8N/tPNBHd4fOInnjHKqt1hFNoHPH1h54RlYI3FYY72Y3lXArnCQrniy21nZCBxak8uBudacmKRiVF9dzyY5dCtt3ug/8gKJbHnhncyoYA8bW7u/EdcB8+kWNqYq3dLMXTCorGJctDsHfSBdS40zxzHIfE2hgkPLEXXW0cz2PH6Bsed4hzmsMUYxqc4slTBZYbuwsjfrJ4jgzPXGmtTEUsvuU+b/ZUd+EmnGrCePlBMnIdh8RsGuE1N444UgR9zDuhtq08efT5MhyZbxAQH+zB2a6ZKE/nWvIZCAmvPUhBPp8rxd4UjclqfGGF8cJlvesq+yySHeTM7UzJ9JEws2tGul3TX3kW88gLYH7kmx4/8llhKcEUKfuc2Bs/+quRmXbSh+HmjO55OZsqLY9KQkJ4Mnd7jN/fl3bACTA4zyIJUc/LXIvvFdpCgo7XYm7H0/JrYmSc6wJMN29kz/7IK2yqxSW8DEHhBLvMnpZDT8s+jS7HISwhCmytT00pEV5t9QGs0Wo1HDk8Z/ABw3nObwSuC2ytT9/jLe1QWAAh1ysqHWNUYOWiPCqgkLMCaMJOew4AaHq9IpGdVfLxXxnIOk5chkXHhYpjTVaF3sk5/ii2Jpym3wlEN3UC6GSXAE1zPi0WyVtOCp7ll738L3jWu+kOp0MtpQwADdP9KhjFK6+0wocYchzY0xNIMQD+tu0FQwvh0+i+lgUDt/Za5NxOrsBh8fOvgRawSvIlEW+v8PuGuyuv8OteCRJ2wSY8pbCmi8TmYushyGwppM3xAZ7rWbJnnwOcx/UUPfw7Gu/s75UBFwXa2+6Oe88TkHWoIw844whF3+2wE5DdYz4crxYzb+K67sfEG82/Fothb00OY0L/fNBP4+Vy2lsNv+YTfGqTpCOZM9INtyh4VMVOTvjeJhxokFfNa3ibM33XPMRncJlxGIbhkGNaJR4ClWMltNimLzM6lqUcdyELeVYDe0WCFk7UUjzCq2CYyLe1+rnAUkx0j4Lw5imJyIiZxTAq0GyR9DaZh8kKgidSuovc4R9t+zpN+wjv/2EhfQOBPO4QLsbd8VD9ezu5AdwiGxSKcEezmCn3Hdxi2NrW+TA6+JHBslHRim5KmR3+PW1SAT+Kb8c57LsoZcMQSmcbgx80cHMi9zlMeygU/PwJABKOx1kbf2PDFzpzLd7w88MeFS4BFWmn3fWLhkGPA2ClvSQmL5buX0MemB+Sj/lbqn2PkSxUrImC07+6C+0n2agJAI41V7WdevxsWBKChEoAHWvSU/qip35vDgzTOegr7DIA8IuWQO73RxRCub8ezjwXQBCCBBoN6XBwjNKAAUACNNd7Xi1lzOI5YO+irBA2G4flfMIJJ5xwwgknnHDCCSeccMIJJxwG7WpVZnF1le+tk4qLcx3htp12ydUVb2nV2wEq7fuNfjk7a/DdVrs6Cz+3z64C8N4ewc3VhvPKqh6gxr7oW9c5i7sKi2uhb43UUqP4jDxhK5Kuv3I+F+H2N+E80O84b0BtdF/rvKFH680UwQZ8pWHm35uLM9zy7TzUH/aoDyjyUNf1T/zfvf7Nd31T9yvpQueuLTYaQQXWv4kghakHouTRGi+UOjfedP2CfkJSX1MVdd1o+mqPKKxWs04/0G+NUCU2b24v2qVabTseL3W9Qz9dk2bfUkea9Nr/1N7VKvXGa4NJHZe0c/2+DKjgtv8Dpl7HH/z6qldD7U1ZtXYfXNP1Xz6RZqeOO0GDDNe7KqVy075HHH5hwepo5DXxb+/kt+tHOqSRhozI/B583jx8NkLqjXd86Te5710/Jxd86/fkOlJK45ZJ/Yo0Sal0Rv5HvapD5KM0OrjgwU2JtJxOWu9cfyTi3eKvL+TxqEe3b/DX31HqeFxdbpsNUUOM3l/8jnupE30dUkdtg7/ruHLxNXfkcaFuRl3obadifeoXun8fftAdpYzKxlVABMT6hpt6IEOJ3j34RLfe1yn1AaF+6fMi1/2mz/fv2hkSZ+SeX2+tgLp+Waf/10kH1j9brVJAnTTwJ+nVV/TLW5T6GdXr+9QbtBM16ZDaoY5+Oke3VM/1XeovDwSo48So63ie/SZN86rrGyo06uroC259n/o5mRxwm9Vo1SOR2wNCaovagHaV81oppEz64SuhjvmF1ElXbZEHnvuy/opQR1W7axtR6o9E2weS7lD/7VdWS0+e3Dpx6u9+wW9YhvdAhnqpQyuFUu/QSsHXDwh1IuPNftOUqhff5Dk3hDodD21C+tIXOqBOfrvGV7YDxp0I9dtE6vVQnRC5d6jf+wMfaYC9Vv/E+JXQ6mf+JRdYBqqiq83O9S71W19wfHcLUyfatxajToR8ICq5GdQWesYlFu8lqFZC/Tak3gqGdTNCfUNHMxWn06lS6q2wzDvcBFHqqEh/EmZreDb1Vjif+G2wpX6pD2jXfsXXJFKv32yCifcBd/EY9XsG9XYS9ab/dF/SRkjdnz8fY9QHAfXfBah30qi/hH9lUC/pQY/Df69FiBBtyKZeDy6sRahj0zDysU6pt8NJZYCLe4x2+MfATHxMo173qdd3qVeD6m90Xveof/r1RTtiMvXHsI9e4d+bQVVQPcKmTlVLiQzSLfWLkOUb+UTVXKBYqQnw4H8b4Cdd+drhWmdSv/AveYxRD4fLC27jHepvgS11h+sgmTq2D15RBV2/kYc3/bmqfk/0RAp1xOqxWmrfRic38qRPJGj7KmrD12iF1O/IkzdUqhtSyZglrohLNnVfj3b0GHXctn5Rb0T075A6noirYVsw1Bw1el58g6OJjYvLDZb8rZRKnczo2N/boV4/D0uLeG5oAjm/wg/CeqSNTaFvNC+R/oWNudurgc7u8Hgqv/9+1+OtTvrK3e07vRyXO7gL5nVcUw836KfzOpM6/k7wgv+KqHc2W2/xzh+Kl3uTG+lZLVTpl63riGorlQLDVL8lQ63hj8azqAdKDFG96pOl3zadXer3kRKrpCabtz71W/8SUo3EQNY/A1MEi+vXW1Pf/rTxqb9FZiCK1tvNTS205jqldvPVv6LVoH+mYZxWi87aragfUI05Z61Op+UbTdfBpdevm4tm5IrG1u8oNV6b16XrSKCoHjxoez3yoOj1foH1oODW26YWSkNcpG25F5tX+rHdal37/7NdwebOfJGGs+9L8v8mVpN/Kfipo87zUG1XNxFn7e8GP3WilOmoVSrRwVC9uUmwcpNRww773eavCb+ecMIJJ/xv8C/UWWtLZIKH8gAAAABJRU5ErkJggg==;clipPath=inset(0% 0.8% 19.31% 2.8%);" vertex="1" parent="1">
          <mxGeometry x="347.82" y="47" width="44.36" height="30" as="geometry" />
        </mxCell>
        <mxCell id="WvL-EfqDoBBDocNPM3JB-6" value="" style="shape=image;verticalLabelPosition=bottom;labelBackgroundColor=default;verticalAlign=top;aspect=fixed;imageAspect=0;image=data:image/png,iVBORw0KGgoAAAANSUhEUgAAAO0AAADVCAMAAACMuod9AAAAilBMVEX///9tsz9qsjuGv2NqsjhmsDNhrilkry9psTlkrzBgrihfrST9/vz0+fHy+O7L4r7r9Obg7th1t0q01qHJ4byt0pjS5sfk8N2JwGi42KaVxniizYqnz5CMwmy11qJwtUN9u1e/3K+byYCXx3t7ulSQxHLR5sbY6c/f7dhaqxm+3K2p0JTD3bTo8uERKsFgAAAO20lEQVR4nO1d2XbiOBDFshav7JAAIRgCIRPI///eSLYxNra1WV4e+j7MnO500yok1XarSqPRP/zDPyQIZpvd9t1uD5fT6juUXMw4aFXU5R5iBB0HtAbHcRDB581YZj2na3uyjm+EQKsTAIT3M+GCwv9Obcka7nzUjagJHPz+JljSByItCfuLOpU1kXfHvZchsch3G7KObdK1rAwI8o7zClnOpQVhr9DpQ1gK77d2USE7bERWfctj4vckKwXe1a1qwaR1l6aFPfYoLN29Gr0bYPZT592wsH3ubCxu9e5uEq2JpQyzNP56FpYKtKlYVgBA/EN0NCrtHPQsrGX5FZp549IfUN0JIpPCLty+ZaUSzUvLCiDdhMOWiusbPMrj3s8xg/v5uq4bvbXkviZmj/K2I8dYAPxiVsdMIR9GAZXZsY0JO8N9y5kAfhXXdaFHGE+S/xNjRznqX0UlwAVF9Y3TPZ3Qo+zeDQm77MU7rkLhvAbsevksQgqxOQcjGIA+fgDnXESmTFDic7zTo+yZ8ZU/Og/y6gFgtqw73VBwSILBu2vKV54OREUlQKvHstj18tIcTUgtpLM1Ie2+rzCvGniaLIs5d+7HY5E208oGknHXQW1ttoUnZmPP2Sp/mZthIBk3AAe5CMyE+mTnmEyzVbLrBmtjYGn8Dsb6PADOafjp5bNRZ+YwNxU2HIbLWAC5v7HbRVb5ha7oUcai7KQIuwFZnwyHA/0PKqpg5tyiUtSghv5j+Do40ctSSfMg931Y1ucJ5/Bqbr5YkNvInfoemPXJAKxSxBNHBo3cqcFZnxQgZ3seiCODJoTQZkDhQB6AVClfG1gA6Asben2LVQ0A/6qWy9LoWMwI1uE0QFtrMZqzfIwZYhtUlYWVws8wVZRzqEvJwCYhfTRI64POtVaGJVpdzThoMsitJfv6FbOQXjcOGuSlxR+cFbM4CK04f6AeqyE6yD4/r2glAZI6xoML9Gj8CgQxDjMiWs7jdngqiryLNNCSXdy1urCzwTkWwBebUt2Lex6ag4zmlf7TC6hfrxH13Qd2a4HH08VP7Fg+XfXiPgjvoQBZku7vUsfiDokckN/YUZJRRws1YaeDSs+QSCGu0XCVh0QOIDWikhlOpCTsejgOsoNval7+kcW4Mto7w2DSM9DfVkey9WAxrtJpGAo5IFGqW0agSJCEwxAW+pcfZVlHSXKqXGhUiyGQAwD5J6XL98QHVClofetfRQECVtpZ8Ni/kD4Vds/Wh26rPdEVleIPKxSK9UwOQLqtqmq4iIAaFCibQz/0Kio00Opiy4dBn32RAxBhuLuaaGJiagpJfVAv6RkAXQz2m6ZE8wMs8SjHWn91m2d0ICKY2Ltls6taxI8s1TdrP/aJe9YQolJiD152v2vjLXisckoqW9NC7SaVDSLXdQn2MCbQOp8j+2vx+Xt9M7mfBbCgT6I9yGTtJqAyEuwDe/u129yXk/VsPB6HYau9lCn2UKa4JjCzs4BdRnjerSbX1raPC1aOLk4q3ww4yI7rWftNT2KmYL4jFvmO48ZeFMJ4e592cVi5mMko5UsjBxkgfFhphWjGweovRJm4RrWbNGr5GIaoo0T/OF/8P9OAHHC8qEnUoo06Uy32lI/a1gfibU/bWhfXsTIxbm1NoOsyOv6pNwVcl1NnzDOXHtEkBwDe92dsrnUNyHFcwFnXn56KcuctTl4Q4lIX6FwJn8XVqt10fL0SB0MI/bqfTPk55bUONU3sXj2m0arW82eN9JwqMR1yACsyacZB6ncP8DLoGuSAg/TrCc1g+V99k+KcE/NpkAMoMj9wQREHDiHA3Iu6/tSTsvXBrY2Fkcbd57QQUJe/rmxKnRzo/cpSJK2ZNdhSaa1qt1KZHMCm+lwb4Eh4JW83WNflpkwO+ManhqgjANyQLm4NqtQsirJa3gB2dnRDPM8wKUKv4ghVBztUTtjoGmOfPxLgt6bkXpUcqJme0jEuDr/YoK5qSpEcQG2McVLGGgs6bdn4iwppFWs3wbz3FBtFcLAQv1wsDoLK08QU0zN+v3FAihviRq+jRFq3JK0iOYAHYHtiskpEfFyrGhgDJVktaKQJvzFowIYFSYR48gp+yQyqdQ4AOIRLy0p+hNT7T3JmC+tVJAdev6t+cPXpSkS19LNYWrfgbu2UrI/BET8NwHKj4q6QRNqCmQoVt3YQ+pgl0IRb+5iYlM/WHJV8RuminFbxKdctfk1tTY7FVcszGh6pp4drPPZBnNV9SPssNgmVFLKBuRnNMWZLltEf61Ta51FW4/RMjpjTxpmdRk+iOGiSXlIn63D8VdnbRu3opvDFViylPzLZsrkJSvZHSOx3gEV8PKWKcRcPabMEhgoVr9f3aBaTOFwjUsmEzEnMQnqV2ijDUz91kBSuSX7t2bnNuK+5vLANJ4SYwDQdLSt3o7I0ahbkKpTm9u80jmF8EgVBfIZsJ93J6++I4fZ9kEMruXayozusxy0lD2kV7q3Xs7EN5snJ9CX7iJ+OU3Zv5bvX+tbIwTlZKpL1554zCjOdLG9voXSHZDuIkpXKd/l8ZwmozN5upH0p8wPUlWCn28KjuYo4ZqJlvtRaOgPXa2QbpDtrEXliMTu2z95UaY4aWK2IIYcwVVBKVjAztzlqTFYpmx0oroaplS4cKDTDPyvdclyQ7MWFtzbkkMIbeuyIr1CYlcsuPn9zKsmKqLahm8NTtShc2pxKLvRSSFpcndkgRrDMOljUyLZbKd5jeJPb3AazxxphlQmr0k87eiqpF69arpim8bRPPVyeNgOpea6Pb+lFsckl4nrxksfz59okkox5pKlzi7yWuEoNMPR7oH/W7tM8CkZKlfCZfE+g3BIktbfdS7vKaRTl4iwb1J0ImckWnZ/k8D3n5ikXeqQ+YiXFK0EYdO0mz2AuOlMv9EitbeWqJYrO1SaDNMYi3yeK1KcznuL9q8npiOc9dJpLLr4JByNlnRHEf7+OWQ+EoVCX3sXdzd8s56yuIBNvs7ZSW9gI1M7DflUI94V7BTWETYb3ccI2URVR01ni0liiQvJIS9iEguf4IyKyr6OIj25s4WvXEjah4LnFPwJGqLZm3Sg2uLgKZGs5NfFB5TLrgkC3i0zN9fyiPTRMT/w57JwKRgQI6qZady/GF+9FdxBBQ2kd9vHN558KQcM8abdQKljh16skP+OviHh6n7Cuiz+rst3s+RGWTpZf/x4qH8yPkmA2uFaoTWZkYrmv/zTQTg3FjIiE68evU27t4i7n5UPlVM+rl8FJcq4HvwZdf048F/cDKR8p19ZmxuM8m1ReidtfoJgFk0KwAVX/ZP2bvmKw7Jvk014LnhWSqVFSwvQDViWJQJN67zgzIVsdzxHWdCXcdV/9hjuaN1AQcWm5NMXLndfvmiszmS4OJfuaAH81yYDFnf/ybBGvn88UOxLcbVxzZZxmHXNvzLEg8gUi3F5NEw+ch/e9X7Ku2T8QNUv2HYAiG8l7Q0W2dqcW4/s7dmtPj8N5Tl4KccLJV7HUXP66ET/yt4k4olJVbDfM4sZjDhSH2fOoA23OOlzvDh7ieaYINi3siF1GZa+ANxvB1VFUPxsbEX7xDvBPjXVCvG5Rk1AJ3LkXKvQ4w3i5xRgJsvOARM0TuO/s+3Q4b8vUgNtVXvPiUhXG3x9nj3NTs49sfIgpTvEF1AhduNQBAFK6hEo6xwRK1LAgb2WAUbvFyhXp5Aq5s4gAFIk7Xe4sT0pSuj7yYcJDW+FkaTrfW8BNUQHeizVvv9s5diXrCQEiNyPcYSJsPTnAB586AH5l0ie4Lmwk1Ei5jyFwY4YV3ibL1U6vCKgDb/eyzOlkF/lEXlIaUXmRocrJwE6PojZXdRVU2iCYbW94/dyzw6vSoA1cf2eKRvt7VMo16AwWPfoEyHwyCmb3E8RKWxp/VTg6GitsuPuPr7lB291YWEYFyAETtS1lfwt5h5U55jv8yqxlo3hUouVaefoWQBiuTOZ7vvP1Ck0+yNCs3YKoc6OijqZ5QrAhl2FyjrLluP7502zpRnDL53oa9+8Ym5HtELK/G65ACjaocNXkK/Br8FMx/9xxMSaYKChhelW/Jqa7xILNS27WQNN3iToA+H05DYLx+uRLyUsV8Hw1M15FN92h18SAgXToK3UA55lHMN4LiyPpMYg25rmjYGL7JTfcNcHaFMdOwUJZwI6rxKioxq/qiLniO1hxjQyRNvmmRvDytPulNtBxCN4vzTd0hpMTrE74eGYK4/Pj4l597prxww5xTt/Gr2q4XtCoo0ZZ6L/b/IJn0qZMiVa0m1Czul0bFjX8Oe4i6ozX20NjNZhP6qDsq7y60g5xL0uToo6vk9sFEIz4znjjnP4TWb1nhY4vNO86aMtuTzAeX7+XyzvFcfMZ4/d+Xy6Xk+/v68/fNHmLovY7CcL4798/tpcD9oiLHLGLI/cwjhSyOTag/Jn55prD5fe42kdzSH0P4jKgDPEvCQNmIAha8/n5fI4Y7BRRRH/nAJj3QoVEjrQDo0ByiZGN3i3/qFA+BxCCEhuR/uH4GZkyZCXMf5TZ6peUOqggRQfxFrAyOcBH2nVQUZPT/yt2ktUzKkiuZ5k7k+/dbRHGR+ek7+CWjrI9gIOsRQ7wkVAHr0HVMB61Nt+mFCTWHReY89kQbq0mOcBHuo0k57TchyBsSw3fqa1B1iQ5OVd7EMfYb6eR5fpI2hD0/nXaW3gACopqEs1qbSGebpNDMQhZ6VffVm9hL49NCqBVAyIHtWmt3aA1YUcjVcKndeA2u8+WQzA5ObQ83Cvq+XHnF7Q8tmAQzlOG1seG8uo9O0f1IxMGEbb/Lq40SoMdzENqVEQnaKOjo4TDUKyQeFS0AfT8DH0GjdpNHSi/ItQOvG7GUfwNQlEZJAf4EI+K6AAVifx2EKiXDRmH192TCR08Ri8AaiuGr0LfCSkn6lDY0WjRq7jOvOMpzp86r4saAupaWDbOqC+zS7Y9jDCbznvxmIHf01Nx5XkN7ctKom5nXOUwvciVwxmDC3qdRD7b8xvzTMIhyFDDhT6mqzlGsOUtBg4i8KuvuahF/B1P9hzA9nCItotr39v6D/8wHPwPxGfphC6yJdIAAAAASUVORK5CYII=;" vertex="1" parent="1">
          <mxGeometry x="621.64" y="47" width="36.72" height="33" as="geometry" />
        </mxCell>
        <mxCell id="WvL-EfqDoBBDocNPM3JB-7" value="Send request to adapter" style="text;html=1;strokeColor=none;fillColor=none;align=center;verticalAlign=middle;whiteSpace=wrap;rounded=0;" vertex="1" parent="1">
          <mxGeometry x="213" y="44" width="80" height="30" as="geometry" />
        </mxCell>
        <mxCell id="WvL-EfqDoBBDocNPM3JB-8" value="&lt;font style=&quot;background-color: rgb(0, 0, 0);&quot; color=&quot;#ffffff&quot;&gt;&lt;b&gt;1&lt;/b&gt;&lt;/font&gt;" style="ellipse;whiteSpace=wrap;html=1;aspect=fixed;fillColor=#000000;" vertex="1" parent="1">
          <mxGeometry x="193" y="49" width="20" height="20" as="geometry" />
        </mxCell>
        <mxCell id="WvL-EfqDoBBDocNPM3JB-10" value="Delegate request to spring function" style="text;html=1;strokeColor=none;fillColor=none;align=center;verticalAlign=middle;whiteSpace=wrap;rounded=0;" vertex="1" parent="1">
          <mxGeometry x="470" y="44" width="100" height="30" as="geometry" />
        </mxCell>
        <mxCell id="WvL-EfqDoBBDocNPM3JB-11" value="&lt;font style=&quot;background-color: rgb(0, 0, 0);&quot; color=&quot;#ffffff&quot;&gt;&lt;b&gt;2&lt;/b&gt;&lt;/font&gt;" style="ellipse;whiteSpace=wrap;html=1;aspect=fixed;fillColor=#000000;" vertex="1" parent="1">
          <mxGeometry x="450" y="49" width="20" height="20" as="geometry" />
        </mxCell>
        <mxCell id="WvL-EfqDoBBDocNPM3JB-12" value="" style="endArrow=classic;html=1;rounded=0;exitX=1;exitY=0.25;exitDx=0;exitDy=0;entryX=1;entryY=0.75;entryDx=0;entryDy=0;" edge="1" parent="1" source="9anAIuhViXf6DVafKuer-3" target="9anAIuhViXf6DVafKuer-3">
          <mxGeometry width="50" height="50" relative="1" as="geometry">
            <mxPoint x="710" y="69" as="sourcePoint" />
            <mxPoint x="710" y="108.99999999999994" as="targetPoint" />
            <Array as="points">
              <mxPoint x="720" y="60" />
              <mxPoint x="720" y="100" />
            </Array>
          </mxGeometry>
        </mxCell>
        <mxCell id="WvL-EfqDoBBDocNPM3JB-13" value="Handle&lt;br&gt;&amp;nbsp;request" style="text;html=1;strokeColor=none;fillColor=none;align=center;verticalAlign=middle;whiteSpace=wrap;rounded=0;" vertex="1" parent="1">
          <mxGeometry x="738.64" y="65" width="64.64" height="30" as="geometry" />
        </mxCell>
        <mxCell id="WvL-EfqDoBBDocNPM3JB-14" value="&lt;font style=&quot;background-color: rgb(0, 0, 0);&quot; color=&quot;#ffffff&quot;&gt;&lt;b&gt;3&lt;/b&gt;&lt;/font&gt;" style="ellipse;whiteSpace=wrap;html=1;aspect=fixed;fillColor=#000000;" vertex="1" parent="1">
          <mxGeometry x="730" y="70" width="20" height="20" as="geometry" />
        </mxCell>
        <mxCell id="WvL-EfqDoBBDocNPM3JB-15" value="Return response" style="text;html=1;strokeColor=none;fillColor=none;align=center;verticalAlign=middle;whiteSpace=wrap;rounded=0;" vertex="1" parent="1">
          <mxGeometry x="470" y="82" width="100" height="30" as="geometry" />
        </mxCell>
        <mxCell id="WvL-EfqDoBBDocNPM3JB-16" value="&lt;font style=&quot;background-color: rgb(0, 0, 0);&quot; color=&quot;#ffffff&quot;&gt;&lt;b&gt;3&lt;/b&gt;&lt;/font&gt;" style="ellipse;whiteSpace=wrap;html=1;aspect=fixed;fillColor=#000000;" vertex="1" parent="1">
          <mxGeometry x="450" y="87" width="20" height="20" as="geometry" />
        </mxCell>
        <mxCell id="WvL-EfqDoBBDocNPM3JB-17" value="Send response" style="text;html=1;strokeColor=none;fillColor=none;align=center;verticalAlign=middle;whiteSpace=wrap;rounded=0;" vertex="1" parent="1">
          <mxGeometry x="210" y="87" width="100" height="30" as="geometry" />
        </mxCell>
        <mxCell id="WvL-EfqDoBBDocNPM3JB-18" value="&lt;font style=&quot;background-color: rgb(0, 0, 0);&quot; color=&quot;#ffffff&quot;&gt;&lt;b&gt;4&lt;/b&gt;&lt;/font&gt;" style="ellipse;whiteSpace=wrap;html=1;aspect=fixed;fillColor=#000000;" vertex="1" parent="1">
          <mxGeometry x="190" y="92" width="20" height="20" as="geometry" />
        </mxCell>
      </root>
    </mxGraphModel>
  </diagram>
</mxfile>
